HIERARCHY
ROOT Hips
{
	OFFSET 0.000000 0.000000 0.000000
	CHANNELS 6 Xposition Yposition Zposition Zrotation Yrotation Xrotation 
	JOINT LHipJoint
	{
		OFFSET 0.000000 0.000000 0.000000
		CHANNELS 3 Zrotation Yrotation Xrotation
		JOINT LeftUpLeg
		{
			OFFSET 1.363060 -1.794630 0.839290
			CHANNELS 3 Zrotation Yrotation Xrotation
			JOINT LeftLeg
			{
				OFFSET 2.448110 -6.726130 0.000000
				CHANNELS 3 Zrotation Yrotation Xrotation
				JOINT LeftFoot
				{
					OFFSET 2.562200 -7.039590 0.000000
					CHANNELS 3 Zrotation Yrotation Xrotation
					JOINT LeftToeBase
					{
						OFFSET 0.157640 -0.433110 2.322550
						CHANNELS 3 Zrotation Yrotation Xrotation
						End Site
						{
							OFFSET 0.000000 0.000000 0.000000
						}
					}
				}
			}
		}
	}
	JOINT RHipJoint
	{
		OFFSET 0.000000 0.000000 0.000000
		CHANNELS 3 Zrotation Yrotation Xrotation
		JOINT RightUpLeg
		{
			OFFSET -1.305520 -1.794630 0.839290
			CHANNELS 3 Zrotation Yrotation Xrotation
			JOINT RightLeg
			{
				OFFSET -2.542530 -6.985550 0.000000
				CHANNELS 3 Zrotation Yrotation Xrotation
				JOINT RightFoot
				{
					OFFSET -2.568260 -7.056230 0.000000
					CHANNELS 3 Zrotation Yrotation Xrotation
					JOINT RightToeBase
					{
						OFFSET -0.164730 -0.452590 2.363150
						CHANNELS 3 Zrotation Yrotation Xrotation
						End Site
						{
							OFFSET 0.000000 0.000000 0.000000
						}
					}
				}
			}
		}
	}
	JOINT LowerBack
	{
		OFFSET 0.000000 0.000000 0.000000
		CHANNELS 3 Zrotation Yrotation Xrotation
		JOINT Spine
		{
			OFFSET 0.028270 2.035590 -0.193380
			CHANNELS 3 Zrotation Yrotation Xrotation
			JOINT Spine1
			{
				OFFSET 0.056720 2.048850 -0.042750
				CHANNELS 3 Zrotation Yrotation Xrotation
				JOINT Neck
				{
					OFFSET 0.000000 0.000000 0.000000
					CHANNELS 3 Zrotation Yrotation Xrotation
					JOINT Neck1
					{
						OFFSET -0.054170 1.746240 0.172020
						CHANNELS 3 Zrotation Yrotation Xrotation
						JOINT Head
						{
							OFFSET 0.104070 1.761360 -0.123970
							CHANNELS 3 Zrotation Yrotation Xrotation
							End Site
							{
								OFFSET 0.000000 0.000000 0.000000
							}
						}
					}
				}
				JOINT LeftShoulder
				{
					OFFSET 0.000000 0.000000 0.000000
					CHANNELS 3 Zrotation Yrotation Xrotation
					JOINT LeftArm
					{
						OFFSET 3.362410 1.200890 -0.311210
						CHANNELS 3 Zrotation Yrotation Xrotation
						JOINT LeftForeArm
						{
							OFFSET 4.983000 -0.000000 -0.000000
							CHANNELS 3 Zrotation Yrotation Xrotation
							JOINT LeftHand
							{
								OFFSET 3.483560 -0.000000 -0.000000
								CHANNELS 3 Zrotation Yrotation Xrotation
								JOINT LeftFingerBase
								{
									OFFSET 0.000000 0.000000 0.000000
									CHANNELS 3 Zrotation Yrotation Xrotation
									JOINT LeftHandIndex1
									{
										OFFSET 0.715260 -0.000000 -0.000000
										CHANNELS 3 Zrotation Yrotation Xrotation
										End Site
										{
											OFFSET 0.000000 0.000000 0.000000
										}
									}
								}
								JOINT LThumb
								{
									OFFSET 0.000000 0.000000 0.000000
									CHANNELS 3 Zrotation Yrotation Xrotation
									End Site
									{
										OFFSET 0.000000 0.000000 0.000000
									}
								}
							}
						}
					}
				}
				JOINT RightShoulder
				{
					OFFSET 0.000000 0.000000 0.000000
					CHANNELS 3 Zrotation Yrotation Xrotation
					JOINT RightArm
					{
						OFFSET -3.136600 1.374050 -0.404650
						CHANNELS 3 Zrotation Yrotation Xrotation
						JOINT RightForeArm
						{
							OFFSET -5.241900 -0.000000 -0.000000
							CHANNELS 3 Zrotation Yrotation Xrotation
							JOINT RightHand
							{
								OFFSET -3.444170 -0.000000 -0.000000
								CHANNELS 3 Zrotation Yrotation Xrotation
								JOINT RightFingerBase
								{
									OFFSET 0.000000 0.000000 0.000000
									CHANNELS 3 Zrotation Yrotation Xrotation
									JOINT RightHandIndex1
									{
										OFFSET -0.622530 -0.000000 -0.000000
										CHANNELS 3 Zrotation Yrotation Xrotation
										End Site
										{
											OFFSET 0.000000 0.000000 0.000000
										}
									}
								}
								JOINT RThumb
								{
									OFFSET 0.000000 0.000000 0.000000
									CHANNELS 3 Zrotation Yrotation Xrotation
									End Site
									{
										OFFSET 0.000000 0.000000 0.000000
									}
								}
							}
						}
					}
				}
			}
		}
	}
}
MOTION
Frames: 11
Frame Time: 0.008333
0.102161 17.369981 6.692029 -4.394411 19.082546 7.760065 7.797929 1.774416 -0.550918 -9.102400 -31.399096 -31.030787 10.552130 19.928574 64.927060 2.213927 -1.153444 6.695978 10.894600 -17.883100 -62.438900 -11.679100 -2.879413 -1.595754 34.860255 17.773597 -9.540150 -2.589138 -10.152214 30.627045 -0.100995 -1.463577 -2.099775 -13.462500 -18.942800 70.556100 -0.517977 4.484732 8.657256 -0.686961 5.754856 -5.911937 -5.228561 2.705439 -16.286471 -14.454128 -11.308242 -2.851475 26.853622 -16.496005 0.302615 14.054500 -8.151900 3.567700 -1.400476 -12.366643 2.200184 -75.426288 -3.744224 68.667615 123.915536 -45.800304 -88.145261 2.190412 2.043099 16.701863 72.525648 56.964374 67.330400 -7.125000 0.000000 0.000000 166.169100 -72.460800 -170.931000 -0.963838 11.761268 4.873501 -37.923286 10.292484 -98.567658 -80.260430 60.415741 -59.996063 -1.264553 5.271316 -3.349915 -18.285696 52.591124 -12.959600 7.125000 0.000000 0.000000 10.627700 17.973200 13.578100 
0.483202 17.496225 6.648592 -3.777654 11.329031 8.150089 7.751386 1.716495 -0.342325 -8.916649 -34.986486 -28.672646 9.170906 19.091148 60.802888 4.187907 -7.181944 7.639240 11.499700 -18.171100 -64.394000 -11.660986 -2.801187 -1.574071 32.667110 18.047158 -9.220320 -2.495522 -9.307991 28.290487 -0.982002 4.271447 -1.378506 -13.404400 -18.923300 70.376900 -1.261028 4.533510 8.920243 -0.522501 5.677158 -6.174029 -4.491296 2.799402 -17.476206 -14.046696 -12.021900 -2.439757 25.604764 -17.801884 1.485066 12.959500 -8.866400 4.112800 -1.334334 -12.398226 2.048449 -76.216563 -2.321870 70.810603 124.748865 -45.473503 -88.728720 2.271917 1.935202 15.144605 79.531646 54.494413 74.963500 -7.125000 0.000000 0.000000 162.089900 -68.610100 -169.733000 -0.783322 11.907583 4.797838 -36.700908 9.570938 -99.275850 -79.654611 60.014275 -59.794737 -1.330765 5.273921 -2.328559 -21.153792 50.651701 -14.605600 7.125000 0.000000 0.000000 8.948100 16.722500 11.258200 
0.885137 17.597616 6.611422 -3.489089 3.427048 8.187281 7.668449 1.680519 -0.144229 -9.342063 -38.466490 -25.277728 7.861861 18.053002 56.883836 5.883145 -14.439965 10.935248 11.366300 -18.109700 -63.965400 -11.674197 -2.766364 -1.542192 30.817665 18.158388 -9.354621 -2.493226 -8.655613 26.444952 -1.616840 9.762220 -0.824914 -13.257800 -18.873300 69.924200 -1.505298 4.523149 9.377083 -0.267468 5.578609 -6.384710 -3.621616 2.893366 -18.503691 -13.563853 -12.789670 -2.761476 23.634514 -19.127310 3.389178 11.456700 -9.509800 4.961100 -1.218961 -12.443676 1.866859 -77.343354 -0.708889 72.742803 125.406364 -45.222516 -89.121681 2.305910 1.792245 13.198502 86.051334 51.453262 82.542800 -7.125000 0.000000 0.000000 159.191900 -64.379600 -170.028500 -0.557975 12.080917 4.715856 -35.397261 9.361171 -99.002826 -79.662016 59.756620 -60.032081 -1.493254 5.256996 -0.163015 -25.493823 47.353156 -16.714400 7.125000 0.000000 0.000000 6.308500 14.576300 7.733400 
1.301149 17.677893 6.581731 -3.226600 -4.647980 8.053162 7.570116 1.700334 0.012518 -10.398510 -40.006085 -22.133569 6.651991 16.982352 53.351761 6.407108 -19.806857 16.011141 10.292600 -17.571200 -60.462000 -11.647796 -2.813035 -1.516497 29.087230 17.430723 -10.236937 -2.583847 -8.177418 25.032837 -2.037305 15.631480 -0.555389 -13.080700 -18.811100 69.375900 -1.489309 4.490634 10.039754 -0.057556 5.502327 -6.535535 -3.094422 2.935968 -19.458493 -12.895594 -13.383423 -2.768558 21.770805 -20.057581 4.868959 10.148600 -9.974700 5.399600 -1.133516 -12.490212 1.731632 -78.320812 1.030441 74.384315 125.729803 -45.113101 -89.189438 2.312826 1.673031 12.081934 90.530301 49.448258 88.206500 -7.125000 0.000000 0.000000 158.490900 -60.942600 -171.417800 -0.294274 12.295299 4.599134 -33.507019 9.364019 -97.686870 -80.487750 59.638835 -61.056444 -1.763891 5.200043 1.860292 -30.050088 42.055634 -17.891000 7.125000 0.000000 0.000000 3.037500 10.492600 3.544300 
1.722988 17.751462 6.568205 -3.068582 -12.954892 7.887746 7.460815 1.754918 0.064643 -12.352275 -38.665947 -18.804055 5.715590 15.990205 50.487525 6.401305 -23.046062 20.370894 9.476700 -17.104900 -57.724700 -11.735210 -2.823515 -1.335187 27.757342 18.063504 -11.420247 -2.665475 -8.059066 24.515580 -1.994716 18.559940 0.706428 -12.869000 -18.734300 68.718100 -1.292481 4.418163 10.894671 0.134786 5.408203 -6.677159 -2.733165 2.938227 -20.560150 -12.317118 -13.805662 -2.340462 20.137147 -20.681133 5.955280 9.115700 -10.324800 5.537400 -1.107946 -12.560612 1.701429 -78.915260 2.508206 74.864224 124.556642 -45.427123 -88.947418 1.394736 -2.340843 11.095671 96.394615 -45.080427 -96.257900 -7.125000 0.000000 0.000000 159.418200 -55.782300 -174.384100 0.025426 12.543010 4.407627 -31.068179 9.667602 -95.435155 -82.073115 59.695733 -62.792844 -2.077099 5.085621 3.245148 -34.006453 36.150590 -17.767600 7.125000 0.000000 0.000000 -0.146800 5.441800 -0.160000 
2.143728 17.817663 6.564686 -2.890026 -21.392069 7.762057 7.274587 1.881985 0.023753 -14.926797 -34.386054 -16.212947 5.143316 15.259048 48.399839 6.382481 -22.634817 20.947928 9.407200 -17.062700 -57.487800 -11.850653 -2.891744 -1.082597 26.972757 18.601507 -13.271662 -2.721782 -8.314435 24.967129 -1.869278 18.572567 1.877463 -13.036300 -18.795200 69.238200 -1.308136 4.221423 11.762524 0.389848 5.109830 -6.788737 -1.897983 2.941313 -21.557052 -11.954508 -13.923446 -1.750189 18.829597 -20.867366 6.724683 8.390500 -10.480100 5.485100 -1.057357 -12.657673 1.642992 -79.475597 3.765852 75.552853 124.399776 -45.505326 -88.598923 1.300699 -2.227549 10.583709 101.498439 -43.693106 -103.643800 -7.125000 0.000000 0.000000 161.146700 -50.850000 -177.196900 0.349142 12.775373 4.269522 -29.077837 10.692637 -93.358502 -83.144535 59.730318 -63.933772 -2.261706 4.838683 4.193307 -35.972456 30.563177 -16.041200 7.125000 0.000000 0.000000 -2.215300 0.044100 -2.218700 
2.545883 17.866489 6.574033 -2.783498 -29.844079 7.727482 7.072522 2.096411 -0.082932 -17.310410 -28.213305 -14.718516 4.785232 14.743661 46.885510 6.172955 -18.643529 20.053610 8.887100 -16.734500 -55.698700 -12.062136 -3.053860 -0.806392 26.948812 19.075549 -15.298151 -2.660598 -8.847989 26.186851 -1.503699 12.528871 4.741583 -12.624800 -18.642500 67.956100 -1.261575 3.974978 12.547454 0.590139 4.755028 -6.867107 -1.180051 2.897212 -22.349531 -11.943875 -13.908010 -0.724875 18.151130 -20.940863 7.013013 8.124800 -10.628700 5.278900 -1.057290 -12.747973 1.613573 -79.648754 4.465101 75.878511 124.011922 -45.660321 -88.096503 1.171218 -2.124774 9.872451 107.854385 -42.113811 -112.895800 -7.125000 0.000000 0.000000 163.526000 -44.420100 179.757400 0.647312 12.903016 4.228914 -27.079199 11.859174 -90.527067 -82.797917 59.370998 -63.767018 -2.342542 4.549702 5.028111 -37.226627 25.692811 -13.958300 7.125000 0.000000 0.000000 -3.736600 -4.909900 -3.410500 
2.929344 17.869458 6.585470 -2.377411 -38.181402 7.656044 6.808932 2.369803 -0.230545 -19.797160 -20.541119 -14.422052 4.644140 14.422976 45.760361 5.740438 -14.693336 16.490970 9.726100 -17.252900 -58.569000 -12.284079 -3.308979 -0.551477 27.102605 19.464907 -17.483977 -2.454919 -9.690078 27.966131 -0.404612 -0.514047 6.728769 -10.750700 -17.810900 61.969200 -1.773989 3.772231 13.056235 0.788992 4.341962 -6.901133 -0.157226 2.927711 -22.816662 -12.150473 -13.943355 0.087301 17.404005 -21.134230 7.487402 7.844200 -10.822000 5.225000 -1.063740 -12.810501 1.608147 -79.501732 4.494897 76.163341 123.592346 -45.790622 -87.597496 1.005200 -2.076087 9.416014 113.749779 -41.510760 -120.952100 -7.125000 0.000000 0.000000 166.310200 -38.818700 177.868200 0.896701 12.977015 4.169822 -25.406787 12.846593 -87.113198 -82.685562 59.073721 -63.548474 -2.490448 4.166708 5.632809 -38.782188 20.198646 -11.263500 7.125000 0.000000 0.000000 -5.470900 -10.654100 -4.385700 
3.301807 17.846365 6.595917 -1.631058 -46.250575 7.469203 6.533699 2.590207 -0.381430 -22.035494 -13.361076 -15.139130 4.510752 14.200184 44.790560 4.888920 -10.322912 14.244154 9.652400 -17.209700 -58.320300 -12.373293 -3.539745 -0.369943 27.196830 19.506533 -19.438697 -2.234231 -10.529829 29.610620 1.491699 -12.850019 4.386051 -8.871900 -16.724600 55.646000 -2.399827 3.599034 13.232999 0.912196 3.944210 -6.882709 0.629983 2.918864 -22.888415 -12.662503 -14.173730 0.779221 16.661818 -21.664562 8.053735 7.601500 -11.180500 5.344300 -1.067107 -12.871851 1.612426 -79.450206 3.648478 76.240038 122.486449 -46.112398 -86.480308 0.865162 -2.051914 9.135855 117.267149 -41.164569 -125.547200 -7.125000 0.000000 0.000000 167.959500 -35.636300 177.178300 1.045553 12.979168 4.081483 -24.018522 13.288380 -83.602153 -82.988425 58.937842 -63.711610 -2.582750 3.817033 4.558769 -38.752666 15.329223 -8.042900 7.125000 0.000000 0.000000 -6.139600 -16.261400 -4.199200 
3.661075 17.843836 6.606474 -0.918118 -53.964184 7.473136 6.274736 2.704135 -0.542912 -23.902544 -6.804576 -16.647647 4.348178 13.989939 43.832907 4.217942 -7.642443 12.866070 9.831400 -17.314000 -58.923400 -12.509339 -3.633515 -0.175616 27.304413 20.450140 -20.589680 -2.183320 -11.151477 30.941567 2.753697 -18.994760 2.393718 -4.225600 -12.454600 37.359900 -2.899483 3.420565 13.147336 1.011643 3.563996 -6.886710 1.259392 2.872021 -22.908453 -12.983783 -14.207297 1.459077 15.953999 -21.900413 8.627729 7.386000 -11.389400 5.400800 -1.045177 -12.931337 1.618436 -79.392439 2.010635 76.124736 120.680119 -46.602296 -84.706020 0.696818 -2.047555 9.547424 120.075296 -40.606603 -129.230300 -7.125000 0.000000 0.000000 169.142600 -33.017500 176.762200 1.125173 12.992007 3.971726 -23.229476 13.876890 -80.979266 -83.918422 59.063118 -64.344777 -2.661236 3.457004 3.522112 -38.736436 10.591106 -4.837700 7.125000 0.000000 0.000000 -6.706700 -21.749400 -3.769400 
4.020122 17.875397 6.630887 -0.544948 -61.238271 7.902460 6.067873 2.688796 -0.707161 -25.520068 -2.657158 -18.460624 4.210937 13.895663 43.104128 3.452685 -4.969158 12.254345 10.135600 -17.485400 -59.940700 -12.701948 -3.621797 0.008949 27.349802 22.305306 -21.108046 -2.303342 -11.788627 32.536500 3.464120 -22.049370 1.391419 -1.561400 -7.885600 22.367200 -2.901845 3.042651 12.718235 1.115153 3.021478 -6.854206 1.684344 2.651110 -22.531714 -13.093366 -13.968576 2.166032 15.420201 -21.722814 8.992539 7.304600 -11.400800 5.289500 -0.977236 -12.964165 1.637196 -79.363011 0.263375 75.358585 118.764825 -47.111536 -82.852852 0.436959 -2.043029 10.649980 124.108333 -40.175893 -134.140000 -7.125000 0.000000 0.000000 170.993400 -29.660500 176.592600 1.100516 12.943726 3.944884 -23.426550 14.883562 -79.987018 -84.596010 59.257561 -64.654039 -2.668958 3.091857 2.298313 -38.227198 6.466505 -2.016500 7.125000 0.000000 0.000000 -6.801200 -26.497600 -3.072600 
